<svg id="SvgjsSvg1006" width="288" height="288" xmlns="http://www.w3.org/2000/svg" version="1.1" xmlns:xlink="http://www.w3.org/1999/xlink" xmlns:svgjs="http://svgjs.com/svgjs"><defs id="SvgjsDefs1007"></defs><g id="SvgjsG1008"><svg xmlns="http://www.w3.org/2000/svg" enable-background="new 0 0 243.852 243.852" viewBox="0 0 243.852 243.852" width="288" height="288"><path d="M45.213 211.003v-61.364c3.273.319 7.133.485 11.346.485 25.676 0 46.436-6.773 60.043-19.594 11.146-10.589 17.287-26.365 17.287-44.42 0-17.536-7.334-33.392-20.109-43.494-12.559-10.045-31.014-14.929-56.42-14.929-22.008 0-40.605 1.266-55.279 3.764C.879 31.654 0 32.696 0 33.915v177.088c0 1.381 1.119 2.5 2.5 2.5h40.213C44.094 213.503 45.213 212.384 45.213 211.003zM45.213 113.339V64.405c2.455-.471 7.066-1.094 14.275-1.094 18.551 0 29.19 8.698 29.19 23.863 0 16.776-12.105 26.793-32.385 26.793C51.428 113.967 47.963 113.775 45.213 113.339zM206.76 129.02c-16.568-5.798-19.363-8.559-19.363-12.553 0-7.093 8.109-8.152 12.945-8.152 10.268 0 20.979 3.852 27.031 7.15.678.369 1.484.405 2.193.098.705-.308 1.232-.924 1.424-1.67l7.191-27.959c.293-1.141-.25-2.332-1.303-2.858-7.465-3.732-21.332-7.721-37.869-7.721-32.674 0-55.494 18.549-55.494 45.065-.221 12.937 6.317 30.649 38.725 41.558 15.742 5.248 17.465 7.975 17.465 12.542 0 2.082 0 8.418-14.809 8.418-11.094 0-26.072-4.927-33.588-9.491-.682-.413-1.516-.478-2.252-.174-.734.303-1.281.938-1.473 1.71l-7.189 29.028c-.274 1.107.236 2.258 1.238 2.8 10.998 5.944 26.768 9.354 43.264 9.354 36.365 0 58.955-17.08 58.955-44.608C243.563 150.866 232.119 137.746 206.76 129.02z" fill="#00a9ff" class="color000 svgShape"></path></svg></g></svg>